Coordinates
version=1
nRows=43
nColumns=12
inDegrees=yes

Units are S.I. units (second, meters, Newtons, ...)
Angles are in degrees

endheader
time	SC_y	SC_z	SC_x	AC_y	AC_z	AC_x	GH_y	GH_z	GH_yy	EL_x	PS_y
       0.0              -22.45          28.72          29.28          34.96          7.789         -9.588          113.3           16.4         -74.47          114.0          65.47
   0.02102              -22.45          28.72          29.28          34.97          7.788         -9.586          113.3           16.4         -74.47          114.0          65.48
   0.04204              -22.45          28.72          29.28          34.97          7.787         -9.583          113.2          16.39         -74.48          114.0          65.49
   0.06306              -22.45          28.72          29.28          34.98          7.785          -9.58          113.2          16.39         -74.49          114.0          65.51
   0.08408              -22.45          28.72          29.28          34.98          7.784         -9.577          113.1          16.38         -74.49          114.0          65.52
    0.1051              -22.45          28.72          29.28          34.99          7.783         -9.574          113.1          16.38          -74.5          114.0          65.54
    0.1261              -22.45          28.72          29.28           35.0          7.781         -9.571          113.0          16.38         -74.51          114.0          65.55
    0.1471              -22.45          28.72          29.28           35.0           7.78         -9.567          113.0          16.37         -74.52          114.0          65.57
    0.1682              -22.44          28.72          29.27          35.01          7.778         -9.563          112.9          16.37         -74.53          114.0          65.59
    0.1892              -22.44          28.72          29.27          35.02          7.776         -9.559          112.9          16.36         -74.54          113.9          65.61
    0.2102              -22.44          28.72          29.27          35.03          7.774         -9.554          112.8          16.36         -74.55          113.9          65.63
    0.2312              -22.44          28.72          29.27          35.03          7.772          -9.55          112.7          16.35         -74.56          113.9          65.66
    0.2522              -22.44          28.72          29.27          35.04          7.769         -9.544          112.6          16.34         -74.57          113.9          65.68
    0.2733              -22.44          28.71          29.27          35.05          7.767         -9.539          112.6          16.34         -74.59          113.9          65.71
    0.2943              -22.44          28.71          29.26          35.07          7.764         -9.533          112.5          16.33          -74.6          113.9          65.74
    0.3153              -22.43          28.71          29.26          35.08          7.761         -9.526          112.4          16.32         -74.62          113.8          65.77
    0.3363              -22.43          28.71          29.26          35.09          7.758         -9.519          112.3          16.31         -74.63          113.8          65.81
    0.3573              -22.43          28.71          29.26           35.1          7.755         -9.511          112.1           16.3         -74.65          113.8          65.85
    0.3784              -22.43          28.71          29.25          35.12          7.751         -9.502          112.0          16.29         -74.67          113.8          65.89
    0.3994              -22.43          28.71          29.25          35.14          7.747         -9.493          111.9          16.28         -74.69          113.7          65.94
    0.4204              -22.42          28.71          29.25          35.16          7.742         -9.483          111.7          16.27         -74.72          113.7          65.99
    0.4414              -22.42           28.7          29.24          35.18          7.737         -9.471          111.5          16.25         -74.75          113.7          66.04
    0.4624              -22.42           28.7          29.24           35.2          7.732         -9.459          111.4          16.24         -74.78          113.6           66.1
    0.4834              -22.41           28.7          29.23          35.22          7.725         -9.445          111.2          16.22         -74.81          113.6          66.17
    0.5045              -22.41           28.7          29.23          35.25          7.719         -9.429          110.9           16.2         -74.85          113.5          66.25
    0.5255               -22.4           28.7          29.22          35.28          7.711         -9.412          110.7          16.18         -74.89          113.5          66.33
    0.5465               -22.4          28.69          29.21          35.32          7.702         -9.393          110.4          16.15         -74.93          113.4          66.43
    0.5675              -22.39          28.69           29.2          35.36          7.693         -9.371          110.1          16.13         -74.98          113.3          66.53
    0.5885              -22.39          28.69           29.2           35.4          7.682         -9.346          109.7           16.1         -75.04          113.2          66.65
    0.6096              -22.38          28.68          29.19          35.45           7.67         -9.319          109.3          16.06         -75.11          113.2          66.79
    0.6306              -22.37          28.68          29.17          35.51          7.655         -9.287          108.8          16.02         -75.18          113.0          66.95
    0.6516              -22.36          28.67          29.16          35.57          7.639          -9.25          108.3          15.97         -75.27          112.9          67.13
    0.6726              -22.35          28.67          29.15          35.65          7.621         -9.208          107.6          15.92         -75.37          112.8          67.33
    0.6936              -22.34          28.66          29.13          35.74          7.599         -9.159          106.9          15.86         -75.49          112.6          67.57
    0.7147              -22.32          28.65          29.11          35.84          7.574         -9.102          106.0          15.79         -75.62          112.4          67.85
    0.7357               -22.3          28.64          29.08          35.96          7.544         -9.034          105.0           15.7         -75.78          112.2          68.18
    0.7567              -22.28          28.63          29.05          36.11          7.508         -8.954          103.8           15.6         -75.97          112.0          68.58
    0.7777              -22.26          28.62          29.02          36.28          7.466         -8.857          102.4          15.48          -76.2          111.6          69.05
    0.7987              -22.23           28.6          28.97          36.49          7.414         -8.741          100.7          15.34         -76.48          111.3          69.62
    0.8198              -22.19          28.58          28.92          36.75          7.351         -8.599          98.54          15.16         -76.81          110.8          70.32
    0.8408              -22.14          28.56          28.86          37.06          7.273         -8.423          95.92          14.94         -77.23          110.2          71.18
    0.8618              -22.08          28.52          28.78          37.46          7.177         -8.204          92.66          14.66         -77.75          109.5          72.25
    0.8828              -22.01          28.48          28.68          37.95          7.055         -7.928          88.55          14.32          -78.4          108.6           73.6
